# xmcd CD database file
#
# Track frame offsets:
#	150
#	28720
#	32425
#	52577
#	85853
#	88771
#	114548
#	137943
#	139771
#	169209
#	170539
#	189130
#	191275
#	220939
#	225647
#	265446
#	268354
#
# Disc length: 3878 seconds
#
# Revision: 1
# Processed by: cddbd v1.5.1PL0 Copyright (c) Steve Scherf et al.
# Submitted via: CDex 1.51
#
DISCID=ea0f2411
DTITLE=Joshua Redman - Timeless Tales (for changing times)
DYEAR=1998
DGENRE=Jazz
TTITLE0=Summertime
TTITLE1=Interlude 1
TTITLE2=Visions
TTITLE3=Yesterdays
TTITLE4=Interlude 2
TTITLE5=I Had a King
TTITLE6=The Times They Are A-Changin'
TTITLE7=Interlude 3
TTITLE8=It Might as Well Be Spring
TTITLE9=Interlude 4
TTITLE10=How Deep Is The Ocean?
TTITLE11=Interlude 5
TTITLE12=Love For Sale
TTITLE13=Interlude 6
TTITLE14=Eleanor Rigby
TTITLE15=Interlude 7
TTITLE16=How Come U Don't Call Me Anymore?
EXTD=YEAR: 1998
EXTT0=
EXTT1=
EXTT2=
EXTT3=
EXTT4=
EXTT5=
EXTT6=
EXTT7=
EXTT8=
EXTT9=
EXTT10=
EXTT11=
EXTT12=
EXTT13=
EXTT14=
EXTT15=
EXTT16=
PLAYORDER=
